<mxfile host="app.diagrams.net" agent="Mozilla/5.0 (Macintosh; Intel Mac OS X 10_15_7) AppleWebKit/605.1.15 (KHTML, like Gecko) Version/18.4 Safari/605.1.15" version="26.2.14">
  <diagram name="Page-1" id="868QFfaCL13DriSTI6TV">
    <mxGraphModel dx="1026" dy="-142" grid="1" gridSize="10" guides="1" tooltips="1" connect="1" arrows="1" fold="1" page="1" pageScale="1" pageWidth="850" pageHeight="1100" math="0" shadow="0">
      <root>
        <mxCell id="0" />
        <mxCell id="1" parent="0" />
        <mxCell id="kmffgdeTU2A0HLR3ajjS-5" value="" style="group;fontSize=22;" vertex="1" connectable="0" parent="1">
          <mxGeometry x="580" y="1860" width="531.25" height="245" as="geometry" />
        </mxCell>
        <mxCell id="kmffgdeTU2A0HLR3ajjS-6" value="&lt;b&gt;&lt;font style=&quot;font-size: 18px;&quot;&gt;(2) Parallel Execution&lt;/font&gt;&lt;/b&gt;" style="rounded=1;whiteSpace=wrap;html=1;verticalAlign=top;horizontal=1;spacing=5;strokeWidth=2;glass=0;shadow=0;arcSize=3;fontFamily=JetBrains Mono;fontSource=https%3A%2F%2Ffonts.googleapis.com%2Fcss%3Ffamily%3DJetBrains%2BMono;fillColor=#f5f5f5;fontColor=#333333;strokeColor=#666666;" vertex="1" parent="kmffgdeTU2A0HLR3ajjS-5">
          <mxGeometry width="531.25" height="245" as="geometry" />
        </mxCell>
        <mxCell id="kmffgdeTU2A0HLR3ajjS-8" value="Synchronizing algorithms start" style="text;strokeColor=none;align=center;fillColor=none;html=1;verticalAlign=middle;whiteSpace=wrap;rounded=0;fontStyle=0" vertex="1" parent="kmffgdeTU2A0HLR3ajjS-5">
          <mxGeometry x="17.5" y="50" width="202.5" height="30" as="geometry" />
        </mxCell>
        <mxCell id="kmffgdeTU2A0HLR3ajjS-11" value="" style="endArrow=classic;html=1;rounded=0;exitX=0.5;exitY=1;exitDx=0;exitDy=0;curved=1;" edge="1" parent="kmffgdeTU2A0HLR3ajjS-5" source="kmffgdeTU2A0HLR3ajjS-8">
          <mxGeometry width="50" height="50" relative="1" as="geometry">
            <mxPoint x="210" y="120" as="sourcePoint" />
            <mxPoint x="130" y="150" as="targetPoint" />
            <Array as="points">
              <mxPoint x="90" y="130" />
            </Array>
          </mxGeometry>
        </mxCell>
        <mxCell id="kmffgdeTU2A0HLR3ajjS-1" value="" style="group;fontSize=22;" vertex="1" connectable="0" parent="1">
          <mxGeometry x="580" y="1600" width="531.25" height="205" as="geometry" />
        </mxCell>
        <mxCell id="kmffgdeTU2A0HLR3ajjS-2" value="&lt;b&gt;&lt;font style=&quot;font-size: 18px;&quot;&gt;(1) Sequential Execution&lt;/font&gt;&lt;/b&gt;" style="rounded=1;whiteSpace=wrap;html=1;verticalAlign=top;horizontal=1;spacing=5;strokeWidth=2;glass=0;shadow=0;arcSize=3;fontFamily=JetBrains Mono;fontSource=https%3A%2F%2Ffonts.googleapis.com%2Fcss%3Ffamily%3DJetBrains%2BMono;fillColor=#f5f5f5;fontColor=#333333;strokeColor=#666666;" vertex="1" parent="kmffgdeTU2A0HLR3ajjS-1">
          <mxGeometry width="531.25" height="205" as="geometry" />
        </mxCell>
        <mxCell id="oDjqVW-xz49N-mAe1X7g-32" value="Fixed slice time 10ms" style="text;strokeColor=none;align=center;fillColor=none;html=1;verticalAlign=middle;whiteSpace=wrap;rounded=0;fontStyle=0" parent="kmffgdeTU2A0HLR3ajjS-1" vertex="1">
          <mxGeometry x="93.75" y="50" width="137.5" height="30" as="geometry" />
        </mxCell>
        <mxCell id="oDjqVW-xz49N-mAe1X7g-100" value="" style="endArrow=none;dashed=1;html=1;dashPattern=1 1;strokeWidth=1;rounded=0;exitX=0;exitY=1;exitDx=0;exitDy=0;entryX=0;entryY=0;entryDx=0;entryDy=0;" parent="1" source="oDjqVW-xz49N-mAe1X7g-51" target="oDjqVW-xz49N-mAe1X7g-87" edge="1">
          <mxGeometry width="50" height="50" relative="1" as="geometry">
            <mxPoint x="832.5" y="1950" as="sourcePoint" />
            <mxPoint x="882.5" y="1900" as="targetPoint" />
          </mxGeometry>
        </mxCell>
        <mxCell id="oDjqVW-xz49N-mAe1X7g-101" value="" style="endArrow=none;dashed=1;html=1;dashPattern=1 1;strokeWidth=1;rounded=0;exitX=0;exitY=1;exitDx=0;exitDy=0;entryX=0;entryY=0;entryDx=0;entryDy=0;" parent="1" target="oDjqVW-xz49N-mAe1X7g-88" edge="1">
          <mxGeometry width="50" height="50" relative="1" as="geometry">
            <mxPoint x="742.5" y="2000" as="sourcePoint" />
            <mxPoint x="743.5" y="2028" as="targetPoint" />
          </mxGeometry>
        </mxCell>
        <mxCell id="oDjqVW-xz49N-mAe1X7g-102" value="" style="endArrow=none;dashed=1;html=1;dashPattern=1 1;strokeWidth=1;rounded=0;exitX=0;exitY=1;exitDx=0;exitDy=0;entryX=0;entryY=0;entryDx=0;entryDy=0;" parent="1" edge="1">
          <mxGeometry width="50" height="50" relative="1" as="geometry">
            <mxPoint x="772.5" y="2000" as="sourcePoint" />
            <mxPoint x="772.5" y="2030" as="targetPoint" />
          </mxGeometry>
        </mxCell>
        <mxCell id="oDjqVW-xz49N-mAe1X7g-103" value="" style="endArrow=none;dashed=1;html=1;dashPattern=1 1;strokeWidth=1;rounded=0;exitX=0;exitY=1;exitDx=0;exitDy=0;entryX=0;entryY=0;entryDx=0;entryDy=0;" parent="1" edge="1">
          <mxGeometry width="50" height="50" relative="1" as="geometry">
            <mxPoint x="812.5" y="2000" as="sourcePoint" />
            <mxPoint x="812.5" y="2030" as="targetPoint" />
          </mxGeometry>
        </mxCell>
        <mxCell id="oDjqVW-xz49N-mAe1X7g-104" value="" style="endArrow=none;dashed=1;html=1;dashPattern=1 1;strokeWidth=1;rounded=0;exitX=0;exitY=1;exitDx=0;exitDy=0;entryX=0;entryY=0;entryDx=0;entryDy=0;" parent="1" edge="1">
          <mxGeometry width="50" height="50" relative="1" as="geometry">
            <mxPoint x="842.5" y="2000" as="sourcePoint" />
            <mxPoint x="842.5" y="2030" as="targetPoint" />
          </mxGeometry>
        </mxCell>
        <mxCell id="oDjqVW-xz49N-mAe1X7g-105" value="" style="endArrow=none;dashed=1;html=1;dashPattern=1 1;strokeWidth=1;rounded=0;exitX=0;exitY=1;exitDx=0;exitDy=0;entryX=0;entryY=0;entryDx=0;entryDy=0;" parent="1" edge="1">
          <mxGeometry width="50" height="50" relative="1" as="geometry">
            <mxPoint x="872.5" y="2000" as="sourcePoint" />
            <mxPoint x="872.5" y="2030" as="targetPoint" />
          </mxGeometry>
        </mxCell>
        <mxCell id="oDjqVW-xz49N-mAe1X7g-106" value="" style="endArrow=none;dashed=1;html=1;dashPattern=1 1;strokeWidth=1;rounded=0;exitX=0;exitY=1;exitDx=0;exitDy=0;entryX=0;entryY=0;entryDx=0;entryDy=0;" parent="1" edge="1">
          <mxGeometry width="50" height="50" relative="1" as="geometry">
            <mxPoint x="912.5" y="2000" as="sourcePoint" />
            <mxPoint x="912.5" y="2030" as="targetPoint" />
          </mxGeometry>
        </mxCell>
        <mxCell id="oDjqVW-xz49N-mAe1X7g-107" value="" style="endArrow=none;dashed=1;html=1;dashPattern=1 1;strokeWidth=1;rounded=0;exitX=0;exitY=1;exitDx=0;exitDy=0;entryX=0;entryY=0;entryDx=0;entryDy=0;" parent="1" edge="1">
          <mxGeometry width="50" height="50" relative="1" as="geometry">
            <mxPoint x="932.5" y="2000" as="sourcePoint" />
            <mxPoint x="932.5" y="2030" as="targetPoint" />
          </mxGeometry>
        </mxCell>
        <mxCell id="oDjqVW-xz49N-mAe1X7g-108" value="" style="endArrow=none;dashed=1;html=1;dashPattern=1 1;strokeWidth=1;rounded=0;exitX=0;exitY=1;exitDx=0;exitDy=0;entryX=0;entryY=0;entryDx=0;entryDy=0;" parent="1" edge="1">
          <mxGeometry width="50" height="50" relative="1" as="geometry">
            <mxPoint x="972.5" y="2000" as="sourcePoint" />
            <mxPoint x="972.5" y="2030" as="targetPoint" />
          </mxGeometry>
        </mxCell>
        <mxCell id="oDjqVW-xz49N-mAe1X7g-109" value="" style="endArrow=none;dashed=1;html=1;dashPattern=1 1;strokeWidth=1;rounded=0;exitX=0;exitY=1;exitDx=0;exitDy=0;entryX=0;entryY=0;entryDx=0;entryDy=0;" parent="1" edge="1">
          <mxGeometry width="50" height="50" relative="1" as="geometry">
            <mxPoint x="1002.5" y="2000" as="sourcePoint" />
            <mxPoint x="1002.5" y="2030" as="targetPoint" />
          </mxGeometry>
        </mxCell>
        <mxCell id="oDjqVW-xz49N-mAe1X7g-110" value="" style="endArrow=none;dashed=1;html=1;dashPattern=1 1;strokeWidth=1;rounded=0;exitX=0;exitY=1;exitDx=0;exitDy=0;entryX=0;entryY=0;entryDx=0;entryDy=0;" parent="1" edge="1">
          <mxGeometry width="50" height="50" relative="1" as="geometry">
            <mxPoint x="1032.5" y="2000" as="sourcePoint" />
            <mxPoint x="1032.5" y="2030" as="targetPoint" />
          </mxGeometry>
        </mxCell>
        <mxCell id="oDjqVW-xz49N-mAe1X7g-18" value="" style="rounded=0;whiteSpace=wrap;html=1;fillColor=#f8cecc;strokeColor=#b85450;" parent="1" vertex="1">
          <mxGeometry x="712.5" y="1720" width="30" height="40" as="geometry" />
        </mxCell>
        <mxCell id="oDjqVW-xz49N-mAe1X7g-19" value="" style="rounded=0;whiteSpace=wrap;html=1;fillColor=#d5e8d4;strokeColor=#82b366;" parent="1" vertex="1">
          <mxGeometry x="742.5" y="1720" width="30" height="40" as="geometry" />
        </mxCell>
        <mxCell id="oDjqVW-xz49N-mAe1X7g-20" value="" style="rounded=0;whiteSpace=wrap;html=1;fillColor=#f8cecc;strokeColor=#b85450;" parent="1" vertex="1">
          <mxGeometry x="772.5" y="1720" width="30" height="40" as="geometry" />
        </mxCell>
        <mxCell id="oDjqVW-xz49N-mAe1X7g-21" value="" style="rounded=0;whiteSpace=wrap;html=1;fillColor=#d5e8d4;strokeColor=#82b366;" parent="1" vertex="1">
          <mxGeometry x="802.5" y="1720" width="30" height="40" as="geometry" />
        </mxCell>
        <mxCell id="oDjqVW-xz49N-mAe1X7g-22" value="" style="rounded=0;whiteSpace=wrap;html=1;fillColor=#f8cecc;strokeColor=#b85450;" parent="1" vertex="1">
          <mxGeometry x="832.5" y="1720" width="30" height="40" as="geometry" />
        </mxCell>
        <mxCell id="oDjqVW-xz49N-mAe1X7g-23" value="" style="rounded=0;whiteSpace=wrap;html=1;fillColor=#d5e8d4;strokeColor=#82b366;" parent="1" vertex="1">
          <mxGeometry x="862.5" y="1720" width="30" height="40" as="geometry" />
        </mxCell>
        <mxCell id="oDjqVW-xz49N-mAe1X7g-24" value="" style="rounded=0;whiteSpace=wrap;html=1;fillColor=#f8cecc;strokeColor=#b85450;" parent="1" vertex="1">
          <mxGeometry x="892.5" y="1720" width="30" height="40" as="geometry" />
        </mxCell>
        <mxCell id="oDjqVW-xz49N-mAe1X7g-25" value="" style="rounded=0;whiteSpace=wrap;html=1;fillColor=#d5e8d4;strokeColor=#82b366;" parent="1" vertex="1">
          <mxGeometry x="922.5" y="1720" width="30" height="40" as="geometry" />
        </mxCell>
        <mxCell id="oDjqVW-xz49N-mAe1X7g-26" value="" style="rounded=0;whiteSpace=wrap;html=1;fillColor=#f8cecc;strokeColor=#b85450;" parent="1" vertex="1">
          <mxGeometry x="952.5" y="1720" width="30" height="40" as="geometry" />
        </mxCell>
        <mxCell id="oDjqVW-xz49N-mAe1X7g-27" value="" style="rounded=0;whiteSpace=wrap;html=1;fillColor=#d5e8d4;strokeColor=#82b366;" parent="1" vertex="1">
          <mxGeometry x="982.5" y="1720" width="30" height="40" as="geometry" />
        </mxCell>
        <mxCell id="oDjqVW-xz49N-mAe1X7g-28" value="" style="rounded=0;whiteSpace=wrap;html=1;fillColor=#f8cecc;strokeColor=#b85450;" parent="1" vertex="1">
          <mxGeometry x="1012.5" y="1720" width="30" height="40" as="geometry" />
        </mxCell>
        <mxCell id="oDjqVW-xz49N-mAe1X7g-29" value="" style="rounded=0;whiteSpace=wrap;html=1;fillColor=#d5e8d4;strokeColor=#82b366;" parent="1" vertex="1">
          <mxGeometry x="1042.5" y="1720" width="30" height="40" as="geometry" />
        </mxCell>
        <mxCell id="oDjqVW-xz49N-mAe1X7g-31" value="" style="shape=curlyBracket;whiteSpace=wrap;html=1;rounded=1;labelPosition=left;verticalLabelPosition=middle;align=right;verticalAlign=middle;direction=south;" parent="1" vertex="1">
          <mxGeometry x="712.5" y="1690" width="60" height="20" as="geometry" />
        </mxCell>
        <mxCell id="oDjqVW-xz49N-mAe1X7g-33" value="Core 1" style="text;strokeColor=none;align=left;fillColor=none;html=1;verticalAlign=middle;whiteSpace=wrap;rounded=0;fontStyle=1;fontSize=17;" parent="1" vertex="1">
          <mxGeometry x="610" y="1725" width="90" height="30" as="geometry" />
        </mxCell>
        <mxCell id="oDjqVW-xz49N-mAe1X7g-51" value="" style="rounded=0;whiteSpace=wrap;html=1;fillColor=#f8cecc;strokeColor=#b85450;" parent="1" vertex="1">
          <mxGeometry x="712.5" y="1960" width="30" height="40" as="geometry" />
        </mxCell>
        <mxCell id="oDjqVW-xz49N-mAe1X7g-53" value="" style="rounded=0;whiteSpace=wrap;html=1;fillColor=#f8cecc;strokeColor=#b85450;" parent="1" vertex="1">
          <mxGeometry x="742.5" y="1960" width="30" height="40" as="geometry" />
        </mxCell>
        <mxCell id="oDjqVW-xz49N-mAe1X7g-55" value="" style="rounded=0;whiteSpace=wrap;html=1;fillColor=#f8cecc;strokeColor=#b85450;" parent="1" vertex="1">
          <mxGeometry x="772.5" y="1960" width="30" height="40" as="geometry" />
        </mxCell>
        <mxCell id="oDjqVW-xz49N-mAe1X7g-57" value="" style="rounded=0;whiteSpace=wrap;html=1;fillColor=#f8cecc;strokeColor=#b85450;" parent="1" vertex="1">
          <mxGeometry x="812.5" y="1960" width="30" height="40" as="geometry" />
        </mxCell>
        <mxCell id="oDjqVW-xz49N-mAe1X7g-59" value="" style="rounded=0;whiteSpace=wrap;html=1;fillColor=#f8cecc;strokeColor=#b85450;" parent="1" vertex="1">
          <mxGeometry x="842.5" y="1960" width="30" height="40" as="geometry" />
        </mxCell>
        <mxCell id="oDjqVW-xz49N-mAe1X7g-61" value="" style="rounded=0;whiteSpace=wrap;html=1;fillColor=#f8cecc;strokeColor=#b85450;" parent="1" vertex="1">
          <mxGeometry x="872.5" y="1960" width="40" height="40" as="geometry" />
        </mxCell>
        <mxCell id="oDjqVW-xz49N-mAe1X7g-65" value="Core 1" style="text;strokeColor=none;align=left;fillColor=none;html=1;verticalAlign=middle;whiteSpace=wrap;rounded=0;fontStyle=1;fontSize=17;" parent="1" vertex="1">
          <mxGeometry x="610" y="1965" width="90" height="30" as="geometry" />
        </mxCell>
        <mxCell id="oDjqVW-xz49N-mAe1X7g-79" value="Core 2" style="text;strokeColor=none;align=left;fillColor=none;html=1;verticalAlign=middle;whiteSpace=wrap;rounded=0;fontStyle=1;fontSize=17;" parent="1" vertex="1">
          <mxGeometry x="610" y="2035" width="90" height="30" as="geometry" />
        </mxCell>
        <mxCell id="oDjqVW-xz49N-mAe1X7g-80" value="" style="rounded=0;whiteSpace=wrap;html=1;fillColor=#f8cecc;strokeColor=#b85450;" parent="1" vertex="1">
          <mxGeometry x="932.5" y="1960" width="30" height="40" as="geometry" />
        </mxCell>
        <mxCell id="oDjqVW-xz49N-mAe1X7g-82" value="" style="rounded=0;whiteSpace=wrap;html=1;fillColor=#f8cecc;strokeColor=#b85450;" parent="1" vertex="1">
          <mxGeometry x="972.5" y="1960" width="30" height="40" as="geometry" />
        </mxCell>
        <mxCell id="oDjqVW-xz49N-mAe1X7g-83" value="" style="rounded=0;whiteSpace=wrap;html=1;fillColor=#f8cecc;strokeColor=#b85450;" parent="1" vertex="1">
          <mxGeometry x="1002.5" y="1960" width="30" height="40" as="geometry" />
        </mxCell>
        <mxCell id="oDjqVW-xz49N-mAe1X7g-84" value="" style="rounded=0;whiteSpace=wrap;html=1;fillColor=#f8cecc;strokeColor=#b85450;" parent="1" vertex="1">
          <mxGeometry x="1032.5" y="1960" width="30" height="40" as="geometry" />
        </mxCell>
        <mxCell id="oDjqVW-xz49N-mAe1X7g-87" value="" style="rounded=0;whiteSpace=wrap;html=1;fillColor=#d5e8d4;strokeColor=#82b366;" parent="1" vertex="1">
          <mxGeometry x="712.5" y="2030" width="20" height="40" as="geometry" />
        </mxCell>
        <mxCell id="oDjqVW-xz49N-mAe1X7g-88" value="" style="rounded=0;whiteSpace=wrap;html=1;fillColor=#d5e8d4;strokeColor=#82b366;" parent="1" vertex="1">
          <mxGeometry x="742.5" y="2030" width="20" height="40" as="geometry" />
        </mxCell>
        <mxCell id="oDjqVW-xz49N-mAe1X7g-89" value="" style="rounded=0;whiteSpace=wrap;html=1;fillColor=#d5e8d4;strokeColor=#82b366;" parent="1" vertex="1">
          <mxGeometry x="772.5" y="2030" width="40" height="40" as="geometry" />
        </mxCell>
        <mxCell id="oDjqVW-xz49N-mAe1X7g-90" value="" style="rounded=0;whiteSpace=wrap;html=1;fillColor=#d5e8d4;strokeColor=#82b366;" parent="1" vertex="1">
          <mxGeometry x="812.5" y="2030" width="20" height="40" as="geometry" />
        </mxCell>
        <mxCell id="oDjqVW-xz49N-mAe1X7g-91" value="" style="rounded=0;whiteSpace=wrap;html=1;fillColor=#d5e8d4;strokeColor=#82b366;" parent="1" vertex="1">
          <mxGeometry x="842.5" y="2030" width="20" height="40" as="geometry" />
        </mxCell>
        <mxCell id="oDjqVW-xz49N-mAe1X7g-92" value="" style="rounded=0;whiteSpace=wrap;html=1;fillColor=#d5e8d4;strokeColor=#82b366;" parent="1" vertex="1">
          <mxGeometry x="872.5" y="2030" width="20" height="40" as="geometry" />
        </mxCell>
        <mxCell id="oDjqVW-xz49N-mAe1X7g-93" value="" style="rounded=0;whiteSpace=wrap;html=1;fillColor=#d5e8d4;strokeColor=#82b366;" parent="1" vertex="1">
          <mxGeometry x="912.5" y="2030" width="20" height="40" as="geometry" />
        </mxCell>
        <mxCell id="oDjqVW-xz49N-mAe1X7g-94" value="" style="rounded=0;whiteSpace=wrap;html=1;fillColor=#d5e8d4;strokeColor=#82b366;" parent="1" vertex="1">
          <mxGeometry x="932.5" y="2030" width="40" height="40" as="geometry" />
        </mxCell>
        <mxCell id="oDjqVW-xz49N-mAe1X7g-95" value="" style="rounded=0;whiteSpace=wrap;html=1;fillColor=#d5e8d4;strokeColor=#82b366;" parent="1" vertex="1">
          <mxGeometry x="972.5" y="2030" width="20" height="40" as="geometry" />
        </mxCell>
        <mxCell id="oDjqVW-xz49N-mAe1X7g-96" value="" style="rounded=0;whiteSpace=wrap;html=1;fillColor=#d5e8d4;strokeColor=#82b366;" parent="1" vertex="1">
          <mxGeometry x="1002.5" y="2030" width="20" height="40" as="geometry" />
        </mxCell>
        <mxCell id="oDjqVW-xz49N-mAe1X7g-97" value="" style="rounded=0;whiteSpace=wrap;html=1;fillColor=#d5e8d4;strokeColor=#82b366;" parent="1" vertex="1">
          <mxGeometry x="1032.5" y="2030" width="20" height="40" as="geometry" />
        </mxCell>
        <mxCell id="oDjqVW-xz49N-mAe1X7g-86" value="" style="rounded=1;whiteSpace=wrap;html=1;fillColor=none;strokeWidth=1;dashed=1;" parent="1" vertex="1">
          <mxGeometry x="702.5" y="2030" width="380" height="40" as="geometry" />
        </mxCell>
        <mxCell id="oDjqVW-xz49N-mAe1X7g-50" value="" style="rounded=1;whiteSpace=wrap;html=1;fillColor=none;strokeWidth=1;dashed=1;" parent="1" vertex="1">
          <mxGeometry x="702.5" y="1960" width="380" height="40" as="geometry" />
        </mxCell>
        <mxCell id="oDjqVW-xz49N-mAe1X7g-17" value="" style="rounded=1;whiteSpace=wrap;html=1;fillColor=none;strokeWidth=1;dashed=1;" parent="1" vertex="1">
          <mxGeometry x="702.5" y="1720" width="380" height="40" as="geometry" />
        </mxCell>
        <mxCell id="JaNXhh3mQH9adatympC6-8" value="" style="group" parent="1" vertex="1" connectable="0">
          <mxGeometry x="356.25" y="1190" width="307.5" height="80" as="geometry" />
        </mxCell>
        <mxCell id="JaNXhh3mQH9adatympC6-2" value="&lt;b&gt;VCS&lt;/b&gt;" style="rounded=1;whiteSpace=wrap;html=1;verticalAlign=top;horizontal=1;spacing=5;strokeWidth=2;glass=0;shadow=0;arcSize=3;fontFamily=JetBrains Mono;fontSource=https%3A%2F%2Ffonts.googleapis.com%2Fcss%3Ffamily%3DJetBrains%2BMono;fillColor=#f5f5f5;fontColor=#333333;strokeColor=#666666;" parent="JaNXhh3mQH9adatympC6-8" vertex="1">
          <mxGeometry width="307.5" height="80" as="geometry" />
        </mxCell>
        <mxCell id="JaNXhh3mQH9adatympC6-3" value="&lt;b&gt;MAIN BRANCH&lt;/b&gt;" style="rounded=1;whiteSpace=wrap;html=1;verticalAlign=top;horizontal=1;spacing=5;strokeWidth=2;glass=0;shadow=0;arcSize=3;fontFamily=JetBrains Mono;fontSource=https%3A%2F%2Ffonts.googleapis.com%2Fcss%3Ffamily%3DJetBrains%2BMono;fillColor=#d5e8d4;strokeColor=#82b366;" parent="JaNXhh3mQH9adatympC6-8" vertex="1">
          <mxGeometry x="22.5" y="30" width="125" height="30" as="geometry" />
        </mxCell>
        <mxCell id="JaNXhh3mQH9adatympC6-4" value="&lt;b&gt;FEATURE BRANCH&lt;/b&gt;" style="rounded=1;whiteSpace=wrap;html=1;verticalAlign=top;horizontal=1;spacing=5;strokeWidth=2;glass=0;shadow=0;arcSize=3;fontFamily=JetBrains Mono;fontSource=https%3A%2F%2Ffonts.googleapis.com%2Fcss%3Ffamily%3DJetBrains%2BMono;fillColor=#f8cecc;strokeColor=#b85450;" parent="JaNXhh3mQH9adatympC6-8" vertex="1">
          <mxGeometry x="165" y="30" width="125" height="30" as="geometry" />
        </mxCell>
        <mxCell id="JaNXhh3mQH9adatympC6-9" value="" style="group" parent="1" vertex="1" connectable="0">
          <mxGeometry x="130" y="1320" width="365" height="190" as="geometry" />
        </mxCell>
        <mxCell id="oDjqVW-xz49N-mAe1X7g-2" value="Tango Executable" style="rounded=1;whiteSpace=wrap;html=1;verticalAlign=top;horizontal=1;spacing=5;strokeWidth=2;glass=0;shadow=0;arcSize=3;fontFamily=JetBrains Mono;fontSource=https%3A%2F%2Ffonts.googleapis.com%2Fcss%3Ffamily%3DJetBrains%2BMono;fillColor=#d5e8d4;strokeColor=#82b366;" parent="JaNXhh3mQH9adatympC6-9" vertex="1">
          <mxGeometry width="365" height="190" as="geometry" />
        </mxCell>
        <mxCell id="oDjqVW-xz49N-mAe1X7g-3" value="Benchmark Registry" style="rounded=1;whiteSpace=wrap;html=1;verticalAlign=top;horizontal=1;spacing=5;strokeWidth=1;glass=0;shadow=0;arcSize=3;fontFamily=JetBrains Mono;fontSource=https%3A%2F%2Ffonts.googleapis.com%2Fcss%3Ffamily%3DJetBrains%2BMono;fillColor=#ffe6cc;strokeColor=#d79b00;" parent="JaNXhh3mQH9adatympC6-9" vertex="1">
          <mxGeometry x="15" y="40" width="195" height="130" as="geometry" />
        </mxCell>
        <mxCell id="oDjqVW-xz49N-mAe1X7g-5" value="Tango Runner" style="rounded=1;whiteSpace=wrap;html=1;verticalAlign=middle;horizontal=1;spacing=5;strokeWidth=1;glass=0;shadow=0;arcSize=3;fontFamily=JetBrains Mono;fontSource=https%3A%2F%2Ffonts.googleapis.com%2Fcss%3Ffamily%3DJetBrains%2BMono;fillColor=#e1d5e7;strokeColor=#9673a6;" parent="JaNXhh3mQH9adatympC6-9" vertex="1">
          <mxGeometry x="245" y="40" width="105" height="130" as="geometry" />
        </mxCell>
        <mxCell id="oDjqVW-xz49N-mAe1X7g-6" value="" style="group" parent="JaNXhh3mQH9adatympC6-9" vertex="1" connectable="0">
          <mxGeometry x="27.5" y="90" width="170" height="50" as="geometry" />
        </mxCell>
        <mxCell id="oDjqVW-xz49N-mAe1X7g-7" value="Benchmarks" style="rounded=1;whiteSpace=wrap;html=1;verticalAlign=middle;horizontal=1;spacing=5;strokeWidth=1;gradientColor=none;glass=0;shadow=0;arcSize=3;fontFamily=JetBrains Mono;fontSource=https%3A%2F%2Ffonts.googleapis.com%2Fcss%3Ffamily%3DJetBrains%2BMono;" parent="oDjqVW-xz49N-mAe1X7g-6" vertex="1">
          <mxGeometry width="150" height="30" as="geometry" />
        </mxCell>
        <mxCell id="oDjqVW-xz49N-mAe1X7g-8" value="Benchmarks" style="rounded=1;whiteSpace=wrap;html=1;verticalAlign=middle;horizontal=1;spacing=5;strokeWidth=1;gradientColor=none;glass=0;shadow=0;arcSize=3;fontFamily=JetBrains Mono;fontSource=https%3A%2F%2Ffonts.googleapis.com%2Fcss%3Ffamily%3DJetBrains%2BMono;" parent="oDjqVW-xz49N-mAe1X7g-6" vertex="1">
          <mxGeometry x="10" y="10" width="150" height="30" as="geometry" />
        </mxCell>
        <mxCell id="oDjqVW-xz49N-mAe1X7g-9" value="Benchmarks" style="rounded=1;whiteSpace=wrap;html=1;verticalAlign=middle;horizontal=1;spacing=5;strokeWidth=1;gradientColor=none;glass=0;shadow=0;arcSize=3;fontFamily=JetBrains Mono;fontSource=https%3A%2F%2Ffonts.googleapis.com%2Fcss%3Ffamily%3DJetBrains%2BMono;" parent="oDjqVW-xz49N-mAe1X7g-6" vertex="1">
          <mxGeometry x="20" y="20" width="150" height="30" as="geometry" />
        </mxCell>
        <mxCell id="oDjqVW-xz49N-mAe1X7g-10" style="edgeStyle=orthogonalEdgeStyle;rounded=0;orthogonalLoop=1;jettySize=auto;html=1;exitX=0;exitY=0.5;exitDx=0;exitDy=0;entryX=0.995;entryY=0.5;entryDx=0;entryDy=0;entryPerimeter=0;endArrow=block;endFill=1;strokeWidth=2;" parent="JaNXhh3mQH9adatympC6-9" source="oDjqVW-xz49N-mAe1X7g-5" target="oDjqVW-xz49N-mAe1X7g-3" edge="1">
          <mxGeometry relative="1" as="geometry" />
        </mxCell>
        <mxCell id="JaNXhh3mQH9adatympC6-10" value="" style="group" parent="1" vertex="1" connectable="0">
          <mxGeometry x="525" y="1320" width="365" height="190" as="geometry" />
        </mxCell>
        <mxCell id="oDjqVW-xz49N-mAe1X7g-1" value="Tango Executable" style="rounded=1;whiteSpace=wrap;html=1;verticalAlign=top;horizontal=1;spacing=5;strokeWidth=2;glass=0;shadow=0;arcSize=3;fontFamily=JetBrains Mono;fontSource=https%3A%2F%2Ffonts.googleapis.com%2Fcss%3Ffamily%3DJetBrains%2BMono;fillColor=#f8cecc;strokeColor=#b85450;" parent="JaNXhh3mQH9adatympC6-10" vertex="1">
          <mxGeometry width="365" height="190" as="geometry" />
        </mxCell>
        <mxCell id="oDjqVW-xz49N-mAe1X7g-11" value="Benchmark Registry" style="rounded=1;whiteSpace=wrap;html=1;verticalAlign=top;horizontal=1;spacing=5;strokeWidth=1;glass=0;shadow=0;arcSize=3;fontFamily=JetBrains Mono;fontSource=https%3A%2F%2Ffonts.googleapis.com%2Fcss%3Ffamily%3DJetBrains%2BMono;fillColor=#ffe6cc;strokeColor=#d79b00;" parent="JaNXhh3mQH9adatympC6-10" vertex="1">
          <mxGeometry x="15" y="40" width="195" height="130" as="geometry" />
        </mxCell>
        <mxCell id="oDjqVW-xz49N-mAe1X7g-12" value="Tango Runner" style="rounded=1;whiteSpace=wrap;html=1;verticalAlign=middle;horizontal=1;spacing=5;strokeWidth=1;glass=0;shadow=0;arcSize=3;fontFamily=JetBrains Mono;fontSource=https%3A%2F%2Ffonts.googleapis.com%2Fcss%3Ffamily%3DJetBrains%2BMono;fillColor=#e1d5e7;strokeColor=#9673a6;" parent="JaNXhh3mQH9adatympC6-10" vertex="1">
          <mxGeometry x="245" y="40" width="105" height="130" as="geometry" />
        </mxCell>
        <mxCell id="oDjqVW-xz49N-mAe1X7g-13" value="" style="group" parent="JaNXhh3mQH9adatympC6-10" vertex="1" connectable="0">
          <mxGeometry x="27.5" y="90" width="170" height="50" as="geometry" />
        </mxCell>
        <mxCell id="oDjqVW-xz49N-mAe1X7g-14" value="Benchmarks" style="rounded=1;whiteSpace=wrap;html=1;verticalAlign=middle;horizontal=1;spacing=5;strokeWidth=1;gradientColor=none;glass=0;shadow=0;arcSize=3;fontFamily=JetBrains Mono;fontSource=https%3A%2F%2Ffonts.googleapis.com%2Fcss%3Ffamily%3DJetBrains%2BMono;" parent="oDjqVW-xz49N-mAe1X7g-13" vertex="1">
          <mxGeometry width="150" height="30" as="geometry" />
        </mxCell>
        <mxCell id="oDjqVW-xz49N-mAe1X7g-15" value="Benchmarks" style="rounded=1;whiteSpace=wrap;html=1;verticalAlign=middle;horizontal=1;spacing=5;strokeWidth=1;gradientColor=none;glass=0;shadow=0;arcSize=3;fontFamily=JetBrains Mono;fontSource=https%3A%2F%2Ffonts.googleapis.com%2Fcss%3Ffamily%3DJetBrains%2BMono;" parent="oDjqVW-xz49N-mAe1X7g-13" vertex="1">
          <mxGeometry x="10" y="10" width="150" height="30" as="geometry" />
        </mxCell>
        <mxCell id="oDjqVW-xz49N-mAe1X7g-16" value="Benchmarks" style="rounded=1;whiteSpace=wrap;html=1;verticalAlign=middle;horizontal=1;spacing=5;strokeWidth=1;gradientColor=none;glass=0;shadow=0;arcSize=3;fontFamily=JetBrains Mono;fontSource=https%3A%2F%2Ffonts.googleapis.com%2Fcss%3Ffamily%3DJetBrains%2BMono;" parent="oDjqVW-xz49N-mAe1X7g-13" vertex="1">
          <mxGeometry x="20" y="20" width="150" height="30" as="geometry" />
        </mxCell>
        <mxCell id="oDjqVW-xz49N-mAe1X7g-4" style="edgeStyle=orthogonalEdgeStyle;rounded=0;orthogonalLoop=1;jettySize=auto;html=1;exitX=1;exitY=0.5;exitDx=0;exitDy=0;entryX=0;entryY=0.5;entryDx=0;entryDy=0;strokeWidth=2;endArrow=block;endFill=1;" parent="1" source="oDjqVW-xz49N-mAe1X7g-5" target="oDjqVW-xz49N-mAe1X7g-11" edge="1">
          <mxGeometry relative="1" as="geometry" />
        </mxCell>
        <mxCell id="JaNXhh3mQH9adatympC6-6" style="edgeStyle=orthogonalEdgeStyle;rounded=0;orthogonalLoop=1;jettySize=auto;html=1;exitX=0;exitY=0.5;exitDx=0;exitDy=0;entryX=0.5;entryY=0;entryDx=0;entryDy=0;dashed=1;strokeWidth=2;" parent="1" source="JaNXhh3mQH9adatympC6-3" target="oDjqVW-xz49N-mAe1X7g-2" edge="1">
          <mxGeometry relative="1" as="geometry" />
        </mxCell>
        <mxCell id="JaNXhh3mQH9adatympC6-7" style="edgeStyle=orthogonalEdgeStyle;rounded=0;orthogonalLoop=1;jettySize=auto;html=1;exitX=1;exitY=0.5;exitDx=0;exitDy=0;entryX=0.5;entryY=0;entryDx=0;entryDy=0;dashed=1;strokeWidth=2;" parent="1" source="JaNXhh3mQH9adatympC6-4" target="oDjqVW-xz49N-mAe1X7g-1" edge="1">
          <mxGeometry relative="1" as="geometry" />
        </mxCell>
      </root>
    </mxGraphModel>
  </diagram>
</mxfile>
